<?xml version="1.0" encoding="utf-8"?>
<svg viewBox="86.68 76.653 331.991 158.569" width="331.991px" height="158.569px" xmlns="http://www.w3.org/2000/svg">
  <path d="M 192.331 138.182 C 192.887 138.173 193.328 137.767 193.317 137.278 L 193.307 136.983 C 193.291 136.299 192.44 135.887 191.777 136.24 C 191.471 136.404 191.285 136.701 191.295 137.021 L 191.302 137.311 C 191.316 137.794 191.763 138.182 192.312 138.182 Z" style="" transform="matrix(0.999952, -0.009837, 0.009837, 0.999952, -1.339805, 1.898348)"/>
  <path d="M 194.013 120.502 C 193.886 120.327 193.747 120.161 193.598 120 C 192.927 119.291 191.991 118.814 190.958 118.657 C 186.313 117.975 181.547 118.83 177.577 121.059 C 175.192 122.419 173.177 124.218 171.668 126.337 C 170.745 127.608 168.82 130.03 166.316 131.971 C 166.049 132.178 165.779 132.375 165.51 132.561 C 165.074 132.851 164.965 133.389 165.258 133.794 C 165.586 134.214 166.249 134.304 166.707 133.989 C 167.02 133.774 167.337 133.544 167.644 133.305 C 170.199 131.326 172.165 128.944 173.364 127.294 C 174.716 125.394 176.523 123.776 178.66 122.555 C 182.204 120.564 186.459 119.798 190.607 120.407 C 191.17 120.491 191.678 120.746 192.044 121.13 C 192.141 121.233 192.229 121.34 192.309 121.452 C 192.704 122.004 192.788 122.686 192.535 123.298 C 192.283 123.932 191.714 124.427 190.99 124.642 C 182.677 127.092 178.793 131.634 176.998 135.013 C 175.048 138.688 175.083 141.77 175.084 141.898 C 175.093 142.327 175.447 142.69 175.926 142.758 L 176.281 142.812 C 175.148 144.847 173.182 146.679 173.157 146.702 C 172.748 147.083 172.799 147.695 173.27 148.021 C 173.4 148.112 173.556 148.169 173.721 148.191 C 173.871 148.212 174.012 148.238 174.142 148.267 C 173.098 148.883 172.103 149.56 171.167 150.299 C 171.357 148.95 171.245 147.582 170.836 146.273 C 170.697 145.816 170.185 145.529 169.658 145.61 C 169.077 145.713 168.723 146.233 168.89 146.733 C 169.522 148.611 169.158 150.576 168.814 151.752 C 168.552 152.626 168.391 153.523 168.332 154.428 C 168.283 155.224 168.236 156.019 168.236 156.019 C 168.222 156.436 168.534 156.806 168.99 156.911 C 171.721 157.557 174.194 158.795 175.426 159.475 C 176.332 159.978 177.37 160.257 178.436 160.288 L 179.67 160.323 L 179.67 162.053 C 177.125 162.265 170.1 163.136 164.873 166.545 C 164.448 166.818 164.323 167.326 164.584 167.73 C 164.887 168.182 165.57 168.302 166.049 167.989 C 171.899 164.16 180.617 163.767 180.721 163.763 C 186.585 163.552 190.864 164.803 192.904 165.572 C 192.921 165.58 192.938 165.585 192.954 165.592 C 193.886 165.936 194.747 166.418 195.499 167.014 C 197.193 168.38 197.64 169.724 196.858 171.112 C 196.405 171.896 195.53 172.422 194.537 172.509 C 191.439 172.827 185.752 173.728 182.461 176.219 C 180.081 177.993 177.116 179.041 174.005 179.208 C 173.45 179.208 173.001 179.607 173.001 180.094 L 173.001 180.546 C 170.618 180.087 169.586 178.733 169.528 178.655 C 169.113 178.077 168.144 178.111 167.783 178.714 C 167.615 178.997 167.631 179.333 167.824 179.602 C 167.898 179.706 169.711 182.194 173.937 182.45 C 173.96 182.453 173.983 182.453 174.005 182.453 C 174.561 182.453 175.013 182.056 175.013 181.566 L 175.013 180.924 C 176.179 180.802 177.325 180.572 178.433 180.238 L 177.688 190.706 C 177.652 191.195 178.074 191.616 178.63 191.647 C 178.651 191.647 178.673 191.649 178.692 191.649 C 179.226 191.647 179.667 191.285 179.697 190.816 L 180.504 179.477 C 181.68 178.962 182.781 178.32 183.776 177.565 C 186.1 175.807 190.056 174.934 192.787 174.526 L 193.682 190.804 C 193.71 191.276 194.152 191.649 194.689 191.649 C 194.705 191.649 194.722 191.649 194.739 191.649 C 195.295 191.626 195.724 191.209 195.697 190.719 L 194.789 174.274 C 196.454 174.113 197.914 173.221 198.665 171.899 C 199.282 170.804 199.887 168.73 197.696 166.467 C 201.502 165.24 202.399 162.452 202.299 160.934 C 202.378 159.901 202.162 158.867 201.666 157.926 C 201.438 157.502 200.876 157.302 200.377 157.467 C 199.83 157.657 199.584 158.219 199.845 158.683 C 200.206 159.377 200.358 160.138 200.287 160.893 C 200.281 160.93 200.281 160.966 200.287 161 C 200.307 161.335 200.368 164.209 195.964 165.063 C 195.441 164.731 194.887 164.437 194.305 164.189 C 194.268 163.061 194.231 161.869 194.194 160.633 C 194.378 160.685 194.565 160.743 194.747 160.81 C 195.255 160.997 195.798 161.101 196.35 161.107 L 196.373 161.107 C 197.83 161.107 198.866 160.439 199.212 159.272 C 199.374 158.74 199.354 158.182 199.156 157.663 C 198.999 157.268 198.743 156.911 198.406 156.617 C 198.408 156.613 198.409 156.606 198.411 156.599 C 198.577 156.071 198.555 155.51 198.356 154.99 C 197.956 154.011 196.987 153.296 195.818 153.128 C 192.19 152.547 188.478 153.644 185.98 156.035 C 185.73 156.266 185.63 156.595 185.72 156.902 C 185.857 157.337 186.345 157.614 186.851 157.542 C 187.378 157.478 187.907 157.438 188.436 157.424 C 187.837 157.806 187.284 158.234 186.776 158.71 C 186.527 158.937 186.429 159.266 186.52 159.576 C 186.658 160.01 187.145 160.287 187.651 160.215 C 189.15 160.039 190.668 160.042 192.165 160.224 C 192.199 161.339 192.231 162.418 192.267 163.451 C 188.864 162.415 185.283 161.914 181.685 161.967 L 181.685 159.477 C 181.705 158.96 182.183 145.492 182.139 135.861 C 182.136 135.372 181.687 134.978 181.133 134.978 L 181.128 134.978 C 180.574 134.979 180.123 135.378 180.126 135.868 C 180.161 144.173 179.811 155.349 179.703 158.547 L 178.506 158.513 C 177.792 158.493 177.1 158.306 176.498 157.972 C 174.554 156.89 172.465 156.022 170.278 155.392 L 170.289 155.14 C 170.335 154.033 170.868 152.987 171.776 152.223 C 173.257 150.953 174.918 149.862 176.722 148.973 C 176.898 148.891 177.045 148.768 177.145 148.615 C 177.377 148.255 177.295 147.802 176.948 147.52 C 176.566 147.238 176.136 147.011 175.673 146.849 C 176.625 145.807 177.972 144.14 178.644 142.43 C 178.705 142.283 178.722 142.127 178.695 141.973 C 178.623 141.6 178.289 141.308 177.867 141.246 L 177.145 141.14 C 177.411 138.599 179.212 130.119 191.337 126.416 C 191.376 128.355 191.432 130.985 191.5 134.029 C 191.511 134.513 191.959 134.9 192.506 134.9 C 192.561 134.9 192.599 134.9 192.736 134.799 C 193.202 134.414 193.477 133.879 193.5 133.317 L 193.493 133.043 C 196.242 130.875 199.608 129.414 203.232 128.817 L 203.232 130.016 C 203.228 130.983 202.712 131.891 201.835 132.473 C 198.287 134.88 195.485 138.034 193.689 141.649 C 193.685 141.472 193.681 141.293 193.676 141.116 C 193.66 140.433 192.81 140.022 192.149 140.376 C 191.839 140.54 191.656 140.836 191.663 141.154 C 191.738 144.319 191.819 147.65 191.904 150.932 C 191.917 151.415 192.365 151.8 192.912 151.8 L 192.935 151.8 C 193.49 151.788 193.929 151.383 193.919 150.893 C 193.883 149.583 193.85 148.263 193.817 146.951 C 195.669 139.7 200.39 135.658 203.047 133.894 C 204.428 132.974 205.24 131.541 205.248 130.016 L 205.248 127.802 C 205.253 127.649 205.211 127.495 205.131 127.358 C 204.936 127.029 204.525 126.844 204.107 126.892 C 200.225 127.325 196.545 128.661 193.441 130.765 C 193.396 128.599 193.359 126.766 193.33 125.413 C 193.825 124.988 194.204 124.468 194.435 123.892 C 194.894 122.766 194.741 121.514 194.013 120.502 Z M 189.808 155.646 C 191.54 154.845 193.531 154.569 195.459 154.874 C 195.907 154.926 196.284 155.191 196.449 155.56 C 196.475 155.632 196.493 155.704 196.499 155.777 C 195.102 155.577 193.675 155.612 192.293 155.884 C 191.471 155.751 190.641 155.673 189.808 155.646 Z M 190.607 158.318 C 192.342 157.513 194.331 157.242 196.26 157.544 C 196.705 157.6 197.083 157.86 197.247 158.231 C 197.319 158.421 197.323 158.627 197.261 158.818 C 197.205 159.009 197.111 159.328 196.373 159.328 L 196.358 159.328 C 196.061 159.321 195.768 159.262 195.493 159.157 C 194.806 158.917 194.095 158.734 193.37 158.604 C 193.347 158.601 193.325 158.595 193.301 158.592 C 192.413 158.437 191.511 158.346 190.607 158.318 Z" style=""/>
  <path d="M 167.323 182.365 C 168.064 182.565 168.771 181.983 168.594 181.315 C 168.513 181.007 168.251 180.759 167.907 180.667 C 166.492 180.285 165.353 179.518 164.781 178.56 C 164.426 177.95 163.457 177.908 163.036 178.481 C 162.838 178.754 162.825 179.1 162.999 179.385 C 163.822 180.759 165.397 181.846 167.323 182.365 Z" style="" transform="matrix(0.999952, -0.009837, 0.009837, 0.999952, -1.765004, 1.639197)"/>
  <path d="M 158.43 182.864 C 158.607 183.086 158.889 183.222 159.195 183.236 C 159.214 183.236 159.235 183.239 159.253 183.239 C 159.539 183.239 159.811 183.132 160 182.943 C 160.387 182.541 160.713 182.096 160.965 181.616 C 161.321 181.861 161.701 182.074 162.099 182.256 C 162.792 182.565 163.602 182.096 163.559 181.415 C 163.537 181.101 163.333 180.821 163.017 180.678 C 162.361 180.378 161.781 179.967 161.311 179.463 C 160.854 178.911 159.89 179.002 159.577 179.628 C 159.541 179.7 159.518 179.775 159.505 179.853 C 159.438 180.203 159.317 180.544 159.14 180.861 C 157.854 179.744 156.355 178.835 154.712 178.178 C 152.615 177.355 150.69 176.233 149.013 174.855 C 148.445 174.389 147.52 174.638 147.346 175.304 C 147.269 175.605 147.374 175.921 147.627 176.138 C 149.468 177.655 151.586 178.892 153.886 179.798 L 153.911 179.807 C 153.941 179.818 156.874 180.938 158.43 182.864 Z" style="" transform="matrix(0.999952, -0.009837, 0.009837, 0.999952, -1.752587, 1.537729)"/>
  <path d="M 130.005 166.559 C 129.811 167.056 129.313 167.951 128.14 168.281 C 127.63 168.422 127.326 168.882 127.44 169.342 C 127.577 169.841 128.166 170.138 128.72 169.982 C 129.136 169.872 129.535 169.707 129.897 169.497 C 129.589 176.916 130.401 185.426 134.947 189.504 C 135.152 189.695 136.977 191.351 139.287 191.351 C 139.35 191.351 139.414 191.348 139.479 191.345 C 139.837 191.332 140.198 191.278 140.541 191.181 C 142.466 192.057 144.603 192.503 146.764 192.48 C 148.073 192.479 149.379 192.34 150.651 192.066 C 151.764 191.839 152.795 191.373 153.654 190.709 C 156.431 188.509 155.468 185.566 155.426 185.441 C 155.271 184.984 154.734 184.718 154.21 184.831 C 154.049 184.866 153.901 184.938 153.78 185.039 C 153.764 185.051 153.748 185.063 153.732 185.077 C 153.625 184.047 153.243 183.051 152.622 182.174 C 152.436 181.923 152.118 181.774 151.782 181.774 L 151.78 181.774 C 151.436 181.775 151.119 181.928 150.932 182.182 C 149.872 183.586 148.148 184.347 145.802 184.442 C 145.28 184.461 144.857 184.819 144.814 185.276 C 144.78 185.803 145.272 186.243 145.868 186.217 C 148.195 186.127 150.118 185.471 151.529 184.302 C 151.745 184.929 151.86 185.713 151.486 186.414 C 148.975 187.475 146.257 187.398 144.045 187.001 C 144.104 185.679 143.606 184.383 142.648 183.361 C 142.31 182.991 142.127 182.527 142.128 182.05 C 142.149 180.745 142.269 179.442 142.489 178.154 C 142.793 178.05 143.071 177.893 143.31 177.694 C 144.048 177.078 144.445 176.05 144.491 174.632 C 144.591 174.63 144.692 174.623 144.79 174.61 C 145.575 174.494 146.267 174.094 146.705 173.51 C 146.708 173.503 146.713 173.496 146.714 173.492 C 146.746 173.454 146.773 173.415 146.795 173.372 C 146.798 173.364 146.805 173.357 146.81 173.349 L 146.81 173.348 C 146.878 173.211 148.445 169.991 145.863 165.963 C 145.608 165.549 145.039 165.37 144.546 165.554 C 144.007 165.766 143.794 166.345 144.087 166.8 C 145.996 169.747 145.197 172.081 145.002 172.547 C 144.831 172.737 144.5 173.026 144.063 172.755 C 143.753 172.526 143.314 172.488 142.96 172.66 C 142.609 172.838 142.408 173.18 142.446 173.538 C 142.616 175.501 142.166 176.169 141.964 176.364 C 141.901 176.436 141.813 176.485 141.713 176.508 C 141.485 176.458 141.245 176.494 141.052 176.606 C 140.836 176.722 140.687 176.914 140.644 177.132 C 140.313 178.744 140.135 180.38 140.115 182.018 C 140.106 182.906 140.442 183.766 141.065 184.46 C 142.115 185.63 142.134 186.721 141.951 187.454 C 141.951 187.456 141.95 187.459 141.947 187.461 C 141.944 187.469 141.944 187.473 141.944 187.482 C 141.864 187.797 141.728 188.098 141.542 188.374 C 140.873 189.146 140.168 189.538 139.39 189.574 C 137.853 189.638 136.429 188.306 136.419 188.294 C 136.407 188.282 136.4 188.277 136.389 188.268 C 131.584 183.971 131.581 173.308 132.064 166.964 C 132.126 166.344 131.512 165.835 130.812 165.922 L 130.787 165.926 C 130.419 166.001 130.12 166.241 130.005 166.559 Z M 143.168 189.426 C 143.177 189.415 143.185 189.406 143.193 189.395 C 143.353 189.186 143.489 188.963 143.599 188.729 C 145.947 189.149 149.389 189.336 152.601 187.904 C 152.652 187.887 152.7 187.863 152.748 187.836 C 153.017 187.713 153.282 187.579 153.548 187.429 C 153.398 188.187 152.96 188.877 152.305 189.386 C 151.696 189.852 150.962 190.179 150.174 190.34 C 148.836 190.625 145.682 191.088 142.568 190.042 C 142.782 189.848 142.983 189.641 143.168 189.426 Z" style="" transform="matrix(0.999952, -0.009837, 0.009837, 0.999952, -1.753791, 1.400777)"/>
  <path d="M 134.673 151.791 C 133.284 153.003 130.898 155.832 130.376 161.277 L 130.376 161.277 C 130.376 161.292 130.368 161.341 130.352 161.417 L 130.352 161.417 L 130.325 161.559 C 130.144 162.52 129.856 163.102 128.918 163.23 C 128.15 163.327 127.791 164.12 128.274 164.657 C 128.502 164.91 128.869 165.039 129.231 164.985 C 131.789 164.637 132.183 162.542 132.312 161.854 L 132.334 161.74 L 132.334 161.74 C 132.368 161.57 132.381 161.457 132.384 161.436 L 132.384 161.436 C 132.853 156.532 134.919 154.071 136.106 153.041 C 136.126 153.026 136.141 153.01 136.158 152.993 L 136.158 152.993 C 136.17 152.981 136.181 152.973 136.193 152.962 C 136.264 152.9 136.333 152.834 136.398 152.769 C 137.32 151.974 138.451 151.388 139.692 151.065 C 140.443 150.901 140.711 150.079 140.173 149.586 C 139.923 149.361 139.556 149.266 139.211 149.34 C 138.704 149.459 138.21 149.621 137.736 149.821 C 137.773 149.13 137.626 148.44 137.312 147.807 L 137.286 147.76 C 137.277 147.743 137.265 147.728 137.256 147.714 C 137.25 147.703 137.246 147.692 137.24 147.682 C 136.722 146.912 136.31 146.091 136.015 145.237 C 136.008 145.216 135.999 145.19 135.992 145.168 C 135.845 144.797 132.54 135.977 144.195 131.005 C 144.241 130.985 144.289 130.961 144.334 130.932 C 144.577 130.782 146.736 129.407 147.344 127.68 C 147.575 127.028 146.915 126.4 146.16 126.549 C 145.809 126.618 145.526 126.847 145.418 127.15 C 145.088 128.088 143.783 129.084 143.232 129.439 C 136.377 132.388 134.242 136.648 133.659 139.704 C 133.275 141.709 133.417 143.764 134.075 145.714 C 134.411 146.696 134.88 147.641 135.47 148.527 C 135.955 149.555 135.736 150.737 134.903 151.574 C 134.827 151.644 134.75 151.714 134.673 151.791 Z" style="" transform="matrix(0.999952, -0.009837, 0.009837, 0.999952, -1.427197, 1.361831)"/>
  <path d="M 148.4 130.328 C 148.526 130.328 148.646 130.31 148.761 130.27 C 149.476 130.029 150.757 129.353 151.282 127.541 C 151.473 126.878 150.78 126.279 150.033 126.464 C 149.685 126.548 149.419 126.789 149.331 127.095 C 149.044 128.084 148.468 128.464 148.038 128.611 C 147.313 128.853 147.163 129.697 147.766 130.128 C 147.947 130.256 148.17 130.327 148.4 130.327 Z" style="" transform="matrix(0.999952, -0.009837, 0.009837, 0.999952, -1.255637, 1.475394)"/>
  <path d="M 155.837 129.642 C 155.332 129.506 154.797 129.387 154.296 129.286 C 154.484 129.207 154.676 129.144 154.877 129.092 C 155.634 128.95 155.931 128.137 155.41 127.628 C 155.168 127.396 154.804 127.29 154.453 127.356 C 153.166 127.666 152.021 128.311 151.158 129.207 C 150.652 129.722 150.97 130.532 151.734 130.66 C 151.744 130.663 151.76 130.666 151.774 130.669 C 152.95 130.831 154.111 131.052 155.253 131.341 C 159.681 132.526 162.924 136.104 163.316 140.246 C 163.322 140.32 163.33 140.395 163.335 140.474 C 163.54 143.153 162.74 145.818 161.055 148.056 C 160.621 148.618 161.044 149.389 161.817 149.439 C 162.183 149.465 162.534 149.312 162.734 149.04 C 164.663 146.476 165.58 143.425 165.345 140.354 C 165.338 140.269 165.332 140.185 165.322 140.103 C 164.911 135.228 161.14 131.072 155.837 129.642 Z" style="" transform="matrix(0.999952, -0.009837, 0.009837, 0.999952, -1.353683, 1.562386)"/>
  <path d="M 153.412 154.888 C 153.495 154.888 153.579 154.877 153.661 154.861 C 153.776 154.835 153.891 154.807 154.005 154.779 C 154.75 154.592 154.983 153.762 154.425 153.288 C 154.17 153.07 153.802 152.989 153.46 153.068 C 153.359 153.093 153.259 153.116 153.16 153.139 C 152.406 153.308 152.146 154.13 152.689 154.619 C 152.878 154.79 153.138 154.888 153.412 154.888 Z" style="" transform="matrix(0.999952, -0.009837, 0.009837, 0.999952, -1.507105, 1.518088)"/>
  <path d="M 148.593 155.388 C 149.367 155.388 149.85 154.648 149.458 154.055 C 149.289 153.797 148.98 153.631 148.639 153.613 C 147.861 153.577 147.082 153.487 146.316 153.349 C 145.124 153.134 143.969 152.785 142.881 152.306 C 142.184 152.008 141.383 152.488 141.441 153.17 C 141.467 153.475 141.672 153.748 141.979 153.89 C 143.227 154.439 144.548 154.839 145.915 155.085 C 146.779 155.243 147.655 155.343 148.539 155.386 C 148.558 155.388 148.575 155.388 148.593 155.388 Z" style="" transform="matrix(0.999952, -0.009837, 0.009837, 0.999952, -1.505908, 1.438897)"/>
  <path d="M 138.89 139.843 C 138.723 140.51 139.441 141.087 140.181 140.881 C 140.53 140.783 140.791 140.526 140.86 140.208 C 141.165 138.877 141.9 137.652 142.979 136.683 C 144.455 135.371 146.474 134.587 148.978 134.35 C 151.606 134.097 153.792 134.551 155.476 135.698 C 155.961 136.029 156.395 136.416 156.766 136.848 C 155.915 136.806 155.059 136.827 154.211 136.909 C 153.027 137.027 151.946 137.562 151.213 138.39 C 150.502 139.185 150.184 140.198 150.327 141.206 C 150.353 141.38 150.393 141.556 150.443 141.73 C 150.228 141.79 150.015 141.857 149.796 141.937 C 149.492 142.05 149.206 142.164 148.929 142.282 C 148.742 141.423 148.205 140.654 147.416 140.121 C 145.974 139.182 144.03 139.121 142.522 139.969 C 140.915 140.877 139.7 142.23 139.066 143.817 L 139.066 143.817 C 139.042 143.873 139.026 143.931 139.016 143.99 C 139.012 144.019 139.01 144.048 139.01 144.078 C 139.005 144.105 139.007 144.132 139.007 144.161 C 139.009 144.221 139.02 144.278 139.035 144.337 L 139.035 144.337 C 139.678 146.724 141.397 148.779 143.795 150.032 C 144.724 150.496 145.712 150.865 146.74 151.127 C 147.671 151.373 148.642 151.488 149.612 151.468 C 150.947 151.468 152.271 151.25 153.517 150.827 C 153.933 150.684 154.339 150.521 154.729 150.332 C 157.199 149.166 159.015 147.158 159.751 144.771 C 160.141 143.486 160.323 142.158 160.291 140.826 C 160.3 138.28 158.976 135.872 156.704 134.292 C 154.594 132.856 151.918 132.281 148.757 132.584 C 145.78 132.868 143.355 133.826 141.547 135.43 C 140.194 136.642 139.271 138.175 138.89 139.843 Z M 148.495 144.521 C 148.509 144.513 148.522 144.504 148.537 144.496 C 149.184 144.14 149.866 143.833 150.571 143.578 C 151.181 143.352 151.827 143.205 152.484 143.144 C 152.423 143.422 152.332 143.695 152.204 143.958 C 151.737 144.887 150.553 145.355 149.452 145.052 C 149.062 144.945 148.691 144.797 148.342 144.606 C 148.395 144.578 148.447 144.548 148.495 144.521 Z M 143.471 147.651 C 142.305 146.722 141.47 145.515 141.071 144.177 C 141.571 143.066 142.45 142.122 143.59 141.475 C 144.387 141.018 145.421 141.038 146.194 141.53 C 146.752 141.904 147.022 142.471 147.025 143.25 C 144.735 144.655 143.805 146.284 143.474 147.651 Z M 145.33 148.751 C 145.399 147.646 145.904 146.6 146.762 145.793 C 147.388 146.216 148.098 146.537 148.852 146.745 C 149.263 146.86 149.69 146.918 150.12 146.918 C 150.423 146.915 150.724 146.889 151.02 146.831 L 151.553 147.804 C 151.893 148.42 152.858 148.484 153.292 147.92 C 153.495 147.657 153.524 147.321 153.368 147.034 L 152.837 146.068 C 153.371 145.695 153.792 145.208 154.058 144.657 C 154.274 144.21 154.424 143.741 154.506 143.261 C 155.677 143.526 156.754 144.047 157.637 144.773 C 156.877 149.251 149.472 151.218 145.33 148.751 Z M 157.873 138.711 C 158.131 139.4 158.267 140.12 158.277 140.844 C 158.289 141.512 158.243 142.179 158.14 142.84 C 156.866 142.02 155.365 141.515 153.797 141.376 C 153.726 141.361 153.656 141.353 153.582 141.353 L 153.582 141.353 C 153.565 141.353 153.546 141.357 153.53 141.357 C 153.159 141.338 152.786 141.342 152.415 141.371 C 152.378 141.244 152.346 141.116 152.329 140.986 C 152.251 140.45 152.421 139.909 152.801 139.484 C 153.206 139.029 153.8 138.735 154.453 138.67 C 155.591 138.569 156.738 138.583 157.873 138.711 Z" style="" transform="matrix(0.999952, -0.009837, 0.009837, 0.999952, -1.389497, 1.478289)"/>
  <path d="M 160.04 161.73 C 164.594 159.156 164.744 154.136 164.747 153.923 C 164.761 153.239 163.929 152.799 163.251 153.129 C 162.935 153.282 162.74 153.574 162.732 153.889 C 162.732 153.928 162.626 157.544 159.726 159.724 L 158.885 158.652 C 158.696 158.416 158.389 158.271 158.062 158.27 L 158.055 158.27 C 157.729 158.271 157.424 158.409 157.238 158.645 C 157.225 158.659 156.219 159.822 153.532 160.189 L 153.624 159.88 C 153.787 159.324 153.321 158.78 152.671 158.765 C 151.978 158.751 149.945 158.539 148.881 157.745 C 148.288 157.301 147.378 157.59 147.24 158.262 C 147.175 158.575 147.306 158.891 147.581 159.098 C 148.694 159.929 150.281 160.283 151.38 160.435 L 151.224 160.957 C 151.057 161.518 151.541 162.07 152.201 162.07 L 152.227 162.07 C 155.106 162.004 156.908 161.177 157.899 160.513 L 158.667 161.489 C 158.978 161.88 159.585 161.989 160.04 161.73 Z" style="" transform="matrix(0.999952, -0.009837, 0.009837, 0.999952, -1.542208, 1.54205)"/>
  <path d="M 151.823 164.805 C 151.278 164.71 150.747 165.024 150.64 165.506 C 150.609 165.653 149.876 169.146 152.378 171.711 C 152.887 172.226 153.839 172.062 154.088 171.415 C 154.201 171.12 154.132 170.796 153.901 170.556 C 152.055 168.661 152.609 165.893 152.621 165.844 C 152.724 165.364 152.366 164.9 151.823 164.805 Z" style="" transform="matrix(0.999952, -0.009837, 0.009837, 0.999952, -1.649198, 1.506607)"/>
  <path d="M 156.645 168.828 C 156.501 168.156 155.589 167.869 154.999 168.313 C 154.726 168.517 154.599 168.836 154.663 169.146 C 154.681 169.233 155.113 171.233 156.38 172.535 C 156.889 173.056 157.838 172.896 158.096 172.252 C 158.213 171.953 158.141 171.621 157.908 171.38 C 157 170.451 156.648 168.854 156.645 168.828 Z" style="" transform="matrix(0.999952, -0.009837, 0.009837, 0.999952, -1.669374, 1.546744)"/>
  <circle cx="84.03" cy="113.115" r="0.484" transform="matrix(2.082134, -0.02048, 0.023236, 1.835464, -33.22504, -63.006767)" style=""/>
  <circle cx="125.126" cy="100.563" r="0.484" transform="matrix(2.082134, -0.02048, 0.023236, 1.835464, -108.189178, -42.013992)" style=""/>
  <path d="M 175.672 203.48 C 172.936 203.917 170.156 204.142 167.373 204.142 C 154.634 204.17 142.315 199.455 132.975 190.984 L 139.925 190.984 C 143.42 190.984 145.556 187.34 143.76 184.413 C 142.937 183.062 141.421 182.218 139.799 182.218 L 121.626 182.218 C 119.108 182.218 117.105 184.188 117.14 186.608 L 117.392 204.142 C 117.441 207.505 121.255 209.615 124.264 207.927 C 125.651 207.153 126.501 205.704 126.478 204.142 L 126.375 196.951 C 137.481 207.196 152.241 212.922 167.499 212.908 C 170.797 212.908 174.102 212.641 177.352 212.12 C 180.839 211.543 182.325 207.533 180.018 204.902 C 178.946 203.677 177.301 203.086 175.67 203.354 Z M 157.674 108.369 C 160.424 107.933 163.204 107.708 165.986 107.722 C 178.7 107.75 190.979 112.449 200.345 120.865 L 193.434 120.865 C 189.94 120.865 187.803 124.523 189.599 127.436 C 190.423 128.801 191.938 129.632 193.56 129.632 L 211.733 129.632 C 214.251 129.632 216.254 127.676 216.219 125.241 L 215.967 107.722 C 215.919 104.344 212.104 102.233 209.095 103.922 C 207.695 104.71 206.859 106.145 206.881 107.722 L 206.985 114.954 C 193.341 102.416 174.427 96.774 156.007 99.743 C 152.52 100.32 151.035 104.33 153.342 106.962 C 154.401 108.186 156.058 108.777 157.676 108.51 Z M 118.467 167.977 C 113.393 149.881 119.581 130.744 134.338 118.853 L 134.43 125.241 C 134.479 128.618 138.293 130.729 141.302 129.041 C 142.702 128.267 143.539 126.817 143.516 125.241 L 143.264 107.722 C 143.229 105.301 141.169 103.331 138.664 103.331 L 120.491 103.331 C 116.984 103.331 114.86 106.99 116.642 109.903 C 117.48 111.268 118.995 112.097 120.617 112.097 L 128.385 112.097 C 114.997 122.905 107.382 138.975 107.613 155.932 C 107.682 160.73 108.383 165.515 109.677 170.172 C 110.232 172.156 112.151 173.521 114.274 173.465 L 115.408 173.465 C 117.851 172.804 119.227 170.327 118.467 167.977 Z M 212.742 199.751 L 204.974 199.751 C 218.362 188.944 225.965 172.874 225.747 155.932 C 225.677 151.076 224.975 146.25 223.628 141.55 C 222.974 138.23 218.852 136.78 216.193 138.947 C 214.772 140.115 214.259 142.028 214.89 143.745 C 216.002 147.728 216.602 151.822 216.661 155.932 C 216.828 170.284 210.363 183.878 199.021 193.011 L 198.929 186.608 C 198.881 183.231 195.066 181.12 192.057 182.809 C 190.657 183.597 189.821 185.046 189.843 186.608 L 190.096 204.142 C 190.13 206.562 192.19 208.518 194.695 208.518 L 212.868 208.518 C 216.362 208.518 218.499 204.874 216.717 201.946 C 215.879 200.595 214.364 199.751 212.742 199.751 Z" fill="#000000" class="fill-4d4d4d" style="" transform="matrix(0.856521, 0.516112, -0.516112, 0.856521, 104.396049, -63.651722)"/>
  <text style="fill: rgb(4, 4, 4); font-family: Arial, sans-serif; font-size: 23.2px; white-space: pre;" transform="matrix(2.338392, 0, 0, 2.450143, -890.975098, -485.559906)" x="483.423" y="270.064">Enroter</text>
</svg>